<?xml version="1.0" encoding="UTF-8"?>
<svg id="Layer_2" data-name="Layer 2" xmlns="http://www.w3.org/2000/svg" viewBox="0 0 177.69 77.85">
  <defs>
    <style>
      .cls-1, .cls-2 {
        fill: #004fa6;
      }

      .cls-3 {
        letter-spacing: 0em;
      }

      .cls-2 {
        font-family: HelveticaNeue, 'Helvetica Neue';
        font-size: 23px;
      }

      .cls-4 {
        letter-spacing: -.02em;
      }

      .cls-5 {
        letter-spacing: 0em;
      }

      .cls-6 {
        letter-spacing: 0em;
      }

      .cls-7 {
        letter-spacing: .03em;
      }
    </style>
  </defs>
  <g id="Layer_1-2" data-name="Layer 1">
    <g>
      <g>
        <polygon class="cls-1" points="107.41 17.97 89.28 17.97 89.28 0 83.42 0 83.42 41.66 89.28 41.66 89.28 23.27 107.41 23.27 107.41 41.66 113.27 41.66 113.27 0 107.41 0 107.41 17.97"/>
        <rect class="cls-1" x="120.55" y="12.26" width="5.54" height="29.4"/>
        <rect class="cls-1" x="120.55" y="2.89" width="5.54" height="5.6"/>
        <path class="cls-1" d="M138.51,15.66h-.07v-3.41h-5.54v29.41h5.54v-18.16c0-5.29,2.52-6.18,10.09-6.18h.51v-5.6h-.51c-6.18,0-8.35.82-10.03,3.93Z"/>
        <path class="cls-1" d="M153.3,12.26v8.19h5.53v-3.47h13.32v6.99h-8.89c-5.49,0-11.36,2.4-11.36,9.12,0,4.33,2.92,9.39,11.13,9.39,3.54,0,6.29-.67,9.01-3.94h.11v3.13h5.54V12.26h-24.39ZM165.35,37.44h0c-.47.05-4.63.41-6.69-1.45-.77-.69-1.14-1.6-1.14-2.76,0-3.73,3.12-4.51,5.74-4.51h8.89c-.22,7.46-5.23,8.57-6.79,8.73Z"/>
      </g>
      <text class="cls-2" transform="translate(83.35 66.78)"><tspan class="cls-3" x="0" y="0">A</tspan><tspan class="cls-5" x="14.97" y="0">i</tspan><tspan class="cls-7" x="19.94" y="0">r</tspan><tspan class="cls-4" x="28.25" y="0">t</tspan><tspan class="cls-6" x="34.96" y="0">e</tspan><tspan x="47.28" y="0">k</tspan></text>
      <g>
        <polygon class="cls-1" points="61.37 .17 43.74 .17 43.74 24.66 22.85 24.66 22.85 42.24 5.22 42.24 5.22 66.77 22.86 66.77 22.86 42.28 43.75 42.28 43.75 24.66 61.37 24.66 61.37 .17"/>
        <polygon class="cls-1" points="0 4.55 1.52 4.55 1.52 6.74 3.71 6.74 3.71 4.55 5.22 4.55 5.22 27.44 22.86 42.28 22.86 4.55 24.24 4.55 24.24 6.74 26.43 6.74 26.43 4.55 28.09 4.55 28.09 .17 0 .17 0 4.55"/>
        <polygon class="cls-1" points="66.6 62.4 65.08 62.4 65.08 60.21 62.89 60.21 62.89 62.4 61.37 62.4 61.37 39.5 43.74 24.66 43.74 62.4 42.36 62.4 42.36 60.21 40.17 60.21 40.17 62.4 38.51 62.4 38.51 66.77 66.6 66.77 66.6 62.4"/>
      </g>
    </g>
  </g>
</svg>